{
  "accessors": [
    {
      "bufferView": 2,
      "componentType": 5126,
      "count": 498,
      "max": [
        1.085302472114563,
        1.282183051109314,
        2.8207578659057617
      ],
      "min": [
        -1.085302472114563,
        -0.00811148714274168,
        -2.5230507850646973
      ],
      "type": "VEC3"
    },
    {
      "bufferView": 2,
      "byteOffset": 5976,
      "componentType": 5126,
      "count": 498,
      "max": [
        1.0,
        1.0,
        1.0
      ],
      "min": [
        -1.0,
        -1.0,
        -1.0
      ],
      "type": "VEC3"
    },
    {
      "bufferView": 1,
      "componentType": 5126,
      "count": 498,
      "max": [
        0.9692236185073853,
        0.9921875
      ],
      "min": [
        0.00781250186264515,
        0.0078125
      ],
      "type": "VEC2"
    },
    {
      "bufferView": 0,
      "componentType": 5125,
      "count": 1032,
      "type": "SCALAR"
    },
    {
      "bufferView": 2,
      "byteOffset": 11952,
      "componentType": 5126,
      "count": 98,
      "max": [
        0.8817369937896729,
        0.3766591548919678,
        2.158843994140625
      ],
      "min": [
        0.6291869878768921,
        -0.32352083921432495,
        1.4586650133132935
      ],
      "type": "VEC3"
    },
    {
      "bufferView": 2,
      "byteOffset": 13128,
      "componentType": 5126,
      "count": 98,
      "max": [
        1.0,
        0.9807840585708618,
        0.9858370423316956
      ],
      "min": [
        -1.0,
        -0.9807840585708618,
        -0.9807840585708618
      ],
      "type": "VEC3"
    },
    {
      "bufferView": 1,
      "byteOffset": 3984,
      "componentType": 5126,
      "count": 98,
      "max": [
        0.4351242184638977,
        0.9921875
      ],
      "min": [
        0.23396897315979004,
        0.08938360214233398
      ],
      "type": "VEC2"
    },
    {
      "bufferView": 0,
      "byteOffset": 4128,
      "componentType": 5125,
      "count": 192,
      "type": "SCALAR"
    },
    {
      "bufferView": 2,
      "byteOffset": 14304,
      "componentType": 5126,
      "count": 98,
      "max": [
        -0.6291869878768921,
        0.3766591548919678,
        2.158843994140625
      ],
      "min": [
        -0.8817369937896729,
        -0.32352083921432495,
        1.4586650133132935
      ],
      "type": "VEC3"
    },
    {
      "bufferView": 2,
      "byteOffset": 15480,
      "componentType": 5126,
      "count": 98,
      "max": [
        1.0,
        0.9807840585708618,
        0.9807840585708618
      ],
      "min": [
        -1.0,
        -0.9807840585708618,
        -0.9858370423316956
      ],
      "type": "VEC3"
    },
    {
      "bufferView": 1,
      "byteOffset": 4768,
      "componentType": 5126,
      "count": 98,
      "max": [
        0.4351242184638977,
        0.9921875
      ],
      "min": [
        0.23396897315979004,
        0.08938360214233398
      ],
      "type": "VEC2"
    },
    {
      "bufferView": 0,
      "byteOffset": 4896,
      "componentType": 5125,
      "count": 192,
      "type": "SCALAR"
    },
    {
      "bufferView": 2,
      "byteOffset": 16656,
      "componentType": 5126,
      "count": 98,
      "max": [
        -0.6267439126968384,
        0.3766591548919678,
        -0.810236930847168
      ],
      "min": [
        -0.8792939186096191,
        -0.32352083921432495,
        -1.510416030883789
      ],
      "type": "VEC3"
    },
    {
      "bufferView": 2,
      "byteOffset": 17832,
      "componentType": 5126,
      "count": 98,
      "max": [
        1.0,
        0.9807840585708618,
        0.9807840585708618
      ],
      "min": [
        -1.0,
        -0.9807840585708618,
        -0.9858370423316956
      ],
      "type": "VEC3"
    },
    {
      "bufferView": 1,
      "byteOffset": 5552,
      "componentType": 5126,
      "count": 98,
      "max": [
        0.4351242184638977,
        0.9921875
      ],
      "min": [
        0.23396897315979004,
        0.08938360214233398
      ],
      "type": "VEC2"
    },
    {
      "bufferView": 0,
      "byteOffset": 5664,
      "componentType": 5125,
      "count": 192,
      "type": "SCALAR"
    },
    {
      "bufferView": 2,
      "byteOffset": 19008,
      "componentType": 5126,
      "count": 98,
      "max": [
        0.8792939186096191,
        0.3766591548919678,
        -0.810236930847168
      ],
      "min": [
        0.6267439126968384,
        -0.32352083921432495,
        -1.510416030883789
      ],
      "type": "VEC3"
    },
    {
      "bufferView": 2,
      "byteOffset": 20184,
      "componentType": 5126,
      "count": 98,
      "max": [
        1.0,
        0.9807840585708618,
        0.9858370423316956
      ],
      "min": [
        -1.0,
        -0.9807840585708618,
        -0.9807840585708618
      ],
      "type": "VEC3"
    },
    {
      "bufferView": 1,
      "byteOffset": 6336,
      "componentType": 5126,
      "count": 98,
      "max": [
        0.4351242184638977,
        0.9921875
      ],
      "min": [
        0.23396897315979004,
        0.08938360214233398
      ],
      "type": "VEC2"
    },
    {
      "bufferView": 0,
      "byteOffset": 6432,
      "componentType": 5125,
      "count": 192,
      "type": "SCALAR"
    }
  ],
  "asset": {
    "extras": {
      "author": "zufari4 (https://sketchfab.com/zufari4)",
      "license": "CC-BY-4.0 (http://creativecommons.org/licenses/by/4.0/)",
      "source": "https://sketchfab.com/3d-models/ps1-police-car-chevrolet-caprice-1978-3000906db39245ff8e519f85a50a8403",
      "title": "PS1 Police Car - Chevrolet Caprice 1978"
    },
    "generator": "Sketchfab-0.13.0",
    "version": "2.0"
  },
  "bufferViews": [
    {
      "buffer": 0,
      "byteLength": 7200,
      "name": "floatBufferViews",
      "target": 34963
    },
    {
      "buffer": 0,
      "byteLength": 7120,
      "byteOffset": 7200,
      "byteStride": 8,
      "name": "floatBufferViews",
      "target": 34962
    },
    {
      "buffer": 0,
      "byteLength": 21360,
      "byteOffset": 14320,
      "byteStride": 12,
      "name": "floatBufferViews",
      "target": 34962
    }
  ],
  "buffers": [
    {
      "byteLength": 35680,
      "uri": "scene.bin"
    }
  ],
  "extensionsUsed": [
    "KHR_materials_specular"
  ],
  "images": [
    {
      "uri": "textures/car_PS1_BaseColor_512_v2_baseColor.png"
    }
  ],
  "materials": [
    {
      "doubleSided": true,
      "extensions": {
        "KHR_materials_specular": {
          "specularColorFactor": [
            1.0,
            1.0,
            1.0
          ],
          "specularFactor": 0.08990503590106179
        }
      },
      "name": "car_PS1_BaseColor_512_v2",
      "pbrMetallicRoughness": {
        "baseColorTexture": {
          "index": 0
        },
        "metallicFactor": 0.0
      }
    }
  ],
  "meshes": [
    {
      "name": "Object_0",
      "primitives": [
        {
          "attributes": {
            "NORMAL": 1,
            "POSITION": 0,
            "TEXCOORD_0": 2
          },
          "indices": 3,
          "material": 0,
          "mode": 4
        }
      ]
    },
    {
      "name": "Object_1",
      "primitives": [
        {
          "attributes": {
            "NORMAL": 5,
            "POSITION": 4,
            "TEXCOORD_0": 6
          },
          "indices": 7,
          "material": 0,
          "mode": 4
        }
      ]
    },
    {
      "name": "Object_2",
      "primitives": [
        {
          "attributes": {
            "NORMAL": 9,
            "POSITION": 8,
            "TEXCOORD_0": 10
          },
          "indices": 11,
          "material": 0,
          "mode": 4
        }
      ]
    },
    {
      "name": "Object_3",
      "primitives": [
        {
          "attributes": {
            "NORMAL": 13,
            "POSITION": 12,
            "TEXCOORD_0": 14
          },
          "indices": 15,
          "material": 0,
          "mode": 4
        }
      ]
    },
    {
      "name": "Object_4",
      "primitives": [
        {
          "attributes": {
            "NORMAL": 17,
            "POSITION": 16,
            "TEXCOORD_0": 18
          },
          "indices": 19,
          "material": 0,
          "mode": 4
        }
      ]
    }
  ],
  "nodes": [
    {
      "children": [
        1
      ],
      "matrix": [
        0.7852113246917725,
        0.0,
        0.0,
        0.0,
        0.0,
        1.743519383738451e-16,
        -0.7852113246917725,
        0.0,
        0.0,
        0.7852113246917725,
        1.743519383738451e-16,
        0.0,
        0.0,
        0.0,
        0.0,
        1.0
      ],
      "name": "Sketchfab_model"
    },
    {
      "children": [
        2
      ],
      "name": "root"
    },
    {
      "children": [
        3,
        5,
        7,
        9,
        11
      ],
      "matrix": [
        1.0,
        0.0,
        0.0,
        0.0,
        0.0,
        2.220446049250313e-16,
        1.0,
        0.0,
        0.0,
        -1.0,
        2.220446049250313e-16,
        0.0,
        0.0,
        0.0,
        0.0,
        1.0
      ],
      "name": "GLTF_SceneRootNode"
    },
    {
      "children": [
        4
      ],
      "name": "body_0"
    },
    {
      "mesh": 0,
      "name": "Object_4"
    },
    {
      "children": [
        6
      ],
      "name": "wheel_fl_1"
    },
    {
      "mesh": 1,
      "name": "Object_6"
    },
    {
      "children": [
        8
      ],
      "name": "wheel_fr_2"
    },
    {
      "mesh": 2,
      "name": "Object_8"
    },
    {
      "children": [
        10
      ],
      "name": "wheel_br_3"
    },
    {
      "mesh": 3,
      "name": "Object_10"
    },
    {
      "children": [
        12
      ],
      "name": "wheel_bl_4"
    },
    {
      "mesh": 4,
      "name": "Object_12"
    }
  ],
  "samplers": [
    {
      "magFilter": 9729,
      "minFilter": 9987,
      "wrapS": 10497,
      "wrapT": 10497
    }
  ],
  "scene": 0,
  "scenes": [
    {
      "name": "Sketchfab_Scene",
      "nodes": [
        0
      ]
    }
  ],
  "textures": [
    {
      "sampler": 0,
      "source": 0
    }
  ]
}
